<mxfile host="app.diagrams.net" modified="2023-07-31T12:01:58.312Z" agent="Mozilla/5.0 (Windows NT 10.0; Win64; x64) AppleWebKit/537.36 (KHTML, like Gecko) Chrome/114.0.0.0 Safari/537.36 Edg/114.0.1823.79" etag="SLix9zYyCdKTaAcYVpZx" version="21.6.6" type="github">
  <diagram name="第 1 页" id="YWsFZ-onNurXVJUyl_Fn">
    <mxGraphModel dx="1050" dy="549" grid="1" gridSize="10" guides="1" tooltips="1" connect="1" arrows="1" fold="1" page="1" pageScale="1" pageWidth="827" pageHeight="1169" math="0" shadow="0">
      <root>
        <mxCell id="0" />
        <mxCell id="1" parent="0" />
        <mxCell id="aHIUIpStIMTxLhNF--v--1" value="" style="rounded=1;whiteSpace=wrap;html=1;fillColor=#dae8fc;strokeColor=#6c8ebf;" vertex="1" parent="1">
          <mxGeometry x="130" y="287.5" width="120" height="20" as="geometry" />
        </mxCell>
        <mxCell id="aHIUIpStIMTxLhNF--v--2" value="" style="rounded=1;whiteSpace=wrap;html=1;fillColor=#d5e8d4;strokeColor=#82b366;" vertex="1" parent="1">
          <mxGeometry x="130" y="317.5" width="120" height="20" as="geometry" />
        </mxCell>
        <mxCell id="aHIUIpStIMTxLhNF--v--3" value="" style="rounded=1;whiteSpace=wrap;html=1;fillColor=#fff2cc;strokeColor=#d6b656;" vertex="1" parent="1">
          <mxGeometry x="130" y="387.5" width="120" height="20" as="geometry" />
        </mxCell>
        <mxCell id="aHIUIpStIMTxLhNF--v--4" value="" style="rounded=1;whiteSpace=wrap;html=1;fillColor=#dae8fc;strokeColor=#6c8ebf;" vertex="1" parent="1">
          <mxGeometry x="270" y="287.5" width="120" height="20" as="geometry" />
        </mxCell>
        <mxCell id="aHIUIpStIMTxLhNF--v--5" value="" style="rounded=1;whiteSpace=wrap;html=1;fillColor=#d5e8d4;strokeColor=#82b366;" vertex="1" parent="1">
          <mxGeometry x="270" y="317.5" width="120" height="20" as="geometry" />
        </mxCell>
        <mxCell id="aHIUIpStIMTxLhNF--v--6" value="" style="rounded=1;whiteSpace=wrap;html=1;fillColor=#fff2cc;strokeColor=#d6b656;" vertex="1" parent="1">
          <mxGeometry x="270" y="387.5" width="120" height="20" as="geometry" />
        </mxCell>
        <mxCell id="aHIUIpStIMTxLhNF--v--7" value="" style="rounded=1;whiteSpace=wrap;html=1;fillColor=#dae8fc;strokeColor=#6c8ebf;" vertex="1" parent="1">
          <mxGeometry x="450" y="287.5" width="120" height="20" as="geometry" />
        </mxCell>
        <mxCell id="aHIUIpStIMTxLhNF--v--8" value="" style="rounded=1;whiteSpace=wrap;html=1;fillColor=#d5e8d4;strokeColor=#82b366;" vertex="1" parent="1">
          <mxGeometry x="450" y="317.5" width="120" height="20" as="geometry" />
        </mxCell>
        <mxCell id="aHIUIpStIMTxLhNF--v--9" value="" style="rounded=1;whiteSpace=wrap;html=1;fillColor=#fff2cc;strokeColor=#d6b656;" vertex="1" parent="1">
          <mxGeometry x="450" y="387.5" width="120" height="20" as="geometry" />
        </mxCell>
        <mxCell id="aHIUIpStIMTxLhNF--v--10" value="" style="rounded=1;whiteSpace=wrap;html=1;fillColor=#dae8fc;strokeColor=#6c8ebf;" vertex="1" parent="1">
          <mxGeometry x="130" y="87.5" width="440" height="20" as="geometry" />
        </mxCell>
        <mxCell id="aHIUIpStIMTxLhNF--v--11" value="" style="rounded=1;whiteSpace=wrap;html=1;fillColor=#d5e8d4;strokeColor=#82b366;" vertex="1" parent="1">
          <mxGeometry x="130" y="117.5" width="440" height="20" as="geometry" />
        </mxCell>
        <mxCell id="aHIUIpStIMTxLhNF--v--12" value="&lt;font style=&quot;font-size: 23px;&quot;&gt;...&lt;/font&gt;" style="text;strokeColor=none;align=center;fillColor=none;html=1;verticalAlign=middle;whiteSpace=wrap;rounded=0;" vertex="1" parent="1">
          <mxGeometry x="300" y="137.5" width="90" height="30" as="geometry" />
        </mxCell>
        <mxCell id="aHIUIpStIMTxLhNF--v--13" value="" style="rounded=1;whiteSpace=wrap;html=1;fillColor=#fff2cc;strokeColor=#d6b656;" vertex="1" parent="1">
          <mxGeometry x="130" y="177.5" width="440" height="20" as="geometry" />
        </mxCell>
        <mxCell id="aHIUIpStIMTxLhNF--v--14" value="" style="shape=flexArrow;endArrow=classic;html=1;rounded=0;" edge="1" parent="1">
          <mxGeometry width="50" height="50" relative="1" as="geometry">
            <mxPoint x="344.58" y="217.5" as="sourcePoint" />
            <mxPoint x="345" y="267.5" as="targetPoint" />
          </mxGeometry>
        </mxCell>
        <mxCell id="aHIUIpStIMTxLhNF--v--15" value="&lt;span style=&quot;color: rgb(0, 0, 0); font-family: Helvetica; font-size: 23px; font-style: normal; font-variant-ligatures: normal; font-variant-caps: normal; font-weight: 400; letter-spacing: normal; orphans: 2; text-align: center; text-indent: 0px; text-transform: none; widows: 2; word-spacing: 0px; -webkit-text-stroke-width: 0px; background-color: rgb(251, 251, 251); text-decoration-thickness: initial; text-decoration-style: initial; text-decoration-color: initial; float: none; display: inline !important;&quot;&gt;...&lt;/span&gt;" style="text;whiteSpace=wrap;html=1;" vertex="1" parent="1">
          <mxGeometry x="325" y="337.5" width="50" height="50" as="geometry" />
        </mxCell>
        <mxCell id="aHIUIpStIMTxLhNF--v--16" value="&lt;span style=&quot;color: rgb(0, 0, 0); font-family: Helvetica; font-size: 23px; font-style: normal; font-variant-ligatures: normal; font-variant-caps: normal; font-weight: 400; letter-spacing: normal; orphans: 2; text-align: center; text-indent: 0px; text-transform: none; widows: 2; word-spacing: 0px; -webkit-text-stroke-width: 0px; background-color: rgb(251, 251, 251); text-decoration-thickness: initial; text-decoration-style: initial; text-decoration-color: initial; float: none; display: inline !important;&quot;&gt;...&lt;/span&gt;" style="text;whiteSpace=wrap;html=1;" vertex="1" parent="1">
          <mxGeometry x="410" y="272.5" width="30" height="50" as="geometry" />
        </mxCell>
        <mxCell id="aHIUIpStIMTxLhNF--v--17" value="&lt;span style=&quot;color: rgb(0, 0, 0); font-family: Helvetica; font-size: 23px; font-style: normal; font-variant-ligatures: normal; font-variant-caps: normal; font-weight: 400; letter-spacing: normal; orphans: 2; text-align: center; text-indent: 0px; text-transform: none; widows: 2; word-spacing: 0px; -webkit-text-stroke-width: 0px; background-color: rgb(251, 251, 251); text-decoration-thickness: initial; text-decoration-style: initial; text-decoration-color: initial; float: none; display: inline !important;&quot;&gt;...&lt;/span&gt;" style="text;whiteSpace=wrap;html=1;" vertex="1" parent="1">
          <mxGeometry x="410" y="302.5" width="30" height="50" as="geometry" />
        </mxCell>
        <mxCell id="aHIUIpStIMTxLhNF--v--18" value="&lt;span style=&quot;color: rgb(0, 0, 0); font-family: Helvetica; font-size: 23px; font-style: normal; font-variant-ligatures: normal; font-variant-caps: normal; font-weight: 400; letter-spacing: normal; orphans: 2; text-align: center; text-indent: 0px; text-transform: none; widows: 2; word-spacing: 0px; -webkit-text-stroke-width: 0px; background-color: rgb(251, 251, 251); text-decoration-thickness: initial; text-decoration-style: initial; text-decoration-color: initial; float: none; display: inline !important;&quot;&gt;...&lt;/span&gt;" style="text;whiteSpace=wrap;html=1;" vertex="1" parent="1">
          <mxGeometry x="410" y="372.5" width="30" height="50" as="geometry" />
        </mxCell>
        <mxCell id="aHIUIpStIMTxLhNF--v--19" value="" style="shape=curlyBracket;whiteSpace=wrap;html=1;rounded=1;flipH=1;labelPosition=right;verticalLabelPosition=middle;align=left;verticalAlign=middle;" vertex="1" parent="1">
          <mxGeometry x="590" y="87.5" width="20" height="110" as="geometry" />
        </mxCell>
        <mxCell id="aHIUIpStIMTxLhNF--v--20" value="M个向量" style="text;strokeColor=none;align=center;fillColor=none;html=1;verticalAlign=middle;whiteSpace=wrap;rounded=0;" vertex="1" parent="1">
          <mxGeometry x="610" y="127.5" width="60" height="30" as="geometry" />
        </mxCell>
        <mxCell id="aHIUIpStIMTxLhNF--v--21" value="" style="shape=curlyBracket;whiteSpace=wrap;html=1;rounded=1;labelPosition=left;verticalLabelPosition=middle;align=right;verticalAlign=middle;rotation=90;" vertex="1" parent="1">
          <mxGeometry x="340" y="-147.5" width="20" height="435" as="geometry" />
        </mxCell>
        <mxCell id="aHIUIpStIMTxLhNF--v--23" value="&lt;i&gt;每个向量d&lt;/i&gt;维" style="text;strokeColor=none;align=center;fillColor=none;html=1;verticalAlign=middle;whiteSpace=wrap;rounded=0;" vertex="1" parent="1">
          <mxGeometry x="315" y="30" width="70" height="30" as="geometry" />
        </mxCell>
        <mxCell id="aHIUIpStIMTxLhNF--v--24" value="划分子向量" style="text;strokeColor=none;align=center;fillColor=none;html=1;verticalAlign=middle;whiteSpace=wrap;rounded=0;" vertex="1" parent="1">
          <mxGeometry x="350" y="220" width="70" height="30" as="geometry" />
        </mxCell>
        <mxCell id="aHIUIpStIMTxLhNF--v--26" value="" style="shape=curlyBracket;whiteSpace=wrap;html=1;rounded=1;labelPosition=left;verticalLabelPosition=middle;align=right;verticalAlign=middle;rotation=-90;" vertex="1" parent="1">
          <mxGeometry x="340" y="210" width="20" height="435" as="geometry" />
        </mxCell>
        <mxCell id="aHIUIpStIMTxLhNF--v--27" value="每个向量划分为N个子向量" style="text;strokeColor=none;align=center;fillColor=none;html=1;verticalAlign=middle;whiteSpace=wrap;rounded=0;" vertex="1" parent="1">
          <mxGeometry x="305" y="440" width="80" height="30" as="geometry" />
        </mxCell>
        <mxCell id="aHIUIpStIMTxLhNF--v--28" value="" style="shape=curlyBracket;whiteSpace=wrap;html=1;rounded=1;labelPosition=left;verticalLabelPosition=middle;align=right;verticalAlign=middle;rotation=90;" vertex="1" parent="1">
          <mxGeometry x="180" y="317.5" width="20" height="120" as="geometry" />
        </mxCell>
        <mxCell id="aHIUIpStIMTxLhNF--v--29" value="每个子向量d/N维" style="text;strokeColor=none;align=center;fillColor=none;html=1;verticalAlign=middle;whiteSpace=wrap;rounded=0;" vertex="1" parent="1">
          <mxGeometry x="160" y="342.5" width="60" height="30" as="geometry" />
        </mxCell>
      </root>
    </mxGraphModel>
  </diagram>
</mxfile>
